<?xml version="1.0" encoding="utf-8"?>
<!-- Generator: Adobe Illustrator 16.0.0, SVG Export Plug-In . SVG Version: 6.00 Build 0)  -->
<!DOCTYPE svg PUBLIC "-//W3C//DTD SVG 1.1//EN" "http://www.w3.org/Graphics/SVG/1.1/DTD/svg11.dtd">
<svg version="1.1" id="Layer_1" xmlns="http://www.w3.org/2000/svg" xmlns:xlink="http://www.w3.org/1999/xlink" x="0px" y="0px"
	 width="960px" height="560px" viewBox="0 0 960 560" enable-background="new 0 0 960 560" xml:space="preserve">
<path fill="#3FA9F5" stroke="#FFFFFF" stroke-miterlimit="10" d="M597.47,280.146c0,148.923-52.355,269.647-116.938,269.647
	c-64.583,0-116.938-120.725-116.938-269.647c0-148.921,52.354-269.646,116.938-269.646
	C545.114,10.499,597.47,131.224,597.47,280.146z M477.357,17.355c-60.726,0-109.954,117.5-109.954,262.443
	c0,144.942,49.229,262.442,109.954,262.442s109.955-117.5,109.955-262.442C587.313,134.855,538.083,17.355,477.357,17.355z"/>
<circle fill="#3FA9F5" stroke="#FFFFFF" stroke-miterlimit="10" cx="512.61" cy="28.015" r="14.772"/>
<path fill="#3FA9F5" stroke="#FFFFFF" stroke-miterlimit="10" d="M529.592,371.059c-135.182,62.479-266.733,65.604-293.828,6.979
	C208.668,319.413,296.29,221.24,431.472,158.76c135.182-62.479,266.733-65.603,293.829-6.978
	C752.396,210.406,664.773,308.58,529.592,371.059z M717.744,151.776c-25.477-55.123-152.789-50.514-284.359,10.296
	c-131.57,60.81-217.577,154.791-192.1,209.915c25.477,55.123,152.79,50.514,284.36-10.297
	C657.217,300.882,743.222,206.899,717.744,151.776z"/>
<circle fill="#3FA9F5" stroke="#FFFFFF" stroke-miterlimit="10" cx="378.371" cy="410.494" r="14.773"/>
<path fill="#3FA9F5" stroke="#FFFFFF" stroke-miterlimit="10" d="M522.056,155.592c139.217,52.881,233.484,144.691,210.551,205.066
	c-22.933,60.374-154.38,66.449-293.598,13.568C299.792,321.346,205.525,229.535,228.457,169.16
	C251.39,108.786,382.838,102.711,522.056,155.592z M233.74,174.563c-21.563,56.769,70.799,144.511,206.297,195.98
	c135.499,51.468,262.822,47.17,284.384-9.599c21.563-56.768-70.799-144.512-206.297-195.979
	C382.626,113.497,255.303,117.793,233.74,174.563z"/>
<circle fill="#3FA9F5" stroke="#FFFFFF" stroke-miterlimit="10" cx="273.491" cy="134.363" r="14.773"/>
<path fill-rule="evenodd" clip-rule="evenodd" fill="#3FA9F5" stroke="#FFFFFF" stroke-miterlimit="10" d="M382.64,198.063
	c0,0,6.602,53.834,21.331,67.039c-18.284,14.728-21.331,33.52-21.331,33.52s30.472,22.347,48.755,12.189
	c2.031-2.286,3.047-3.048,3.047-3.048s33.084,54.85,45.708,54.85c12.625,0,39.615-54.85,39.615-54.85s3.41,5.479,6.095,6.095
	c29.274,6.71,51.802-15.236,51.802-15.236s-16.977-33.955-21.33-33.52c8.706-1.742,24.378-63.992,24.378-63.992
	s-54.415-6.53-73.134,15.237c3.047,3.046,3.047,9.141,3.047,9.141h-3.047l-6.095-6.095c0,0-9.142-3.046-18.283-3.046
	s-21.331,0.869-24.378,3.046c-3.046,2.178-6.094,6.095-6.094,6.095l-3.047-3.047l6.095-6.093
	C455.773,216.347,428.729,191.588,382.64,198.063z"/>
</svg>
